<svg width="24" height="18" viewBox="0 0 24 18" fill="none" xmlns="http://www.w3.org/2000/svg">
<path d="M16.9152 12.0818C20.232 9.67227 21.9211 8.4295 23 7.61823V15.75C23 16.4399 22.4399 17 21.75 17H2.25C1.5601 17 1 16.4399 1 15.75V7.62108C2.08067 8.43129 3.77227 9.67198 7.08948 12.0818C7.20417 12.1656 7.34656 12.2754 7.50924 12.4008C7.93134 12.7263 8.48997 13.157 9.05534 13.5109C9.85287 14.0101 10.8819 14.5089 11.9987 14.5047C13.1236 14.512 14.1652 14.0037 14.9655 13.5015C15.5328 13.1456 16.0938 12.712 16.5085 12.3914C16.6685 12.2677 16.8068 12.1609 16.9152 12.0818ZM12.0172 11.0001L12 10.9999L11.9828 11.0001C11.9134 11.0013 11.7627 10.9771 11.5149 10.8688C11.2766 10.7647 11.0082 10.6094 10.7208 10.4184C10.331 10.1593 10.0022 9.90434 9.69053 9.66273C9.50634 9.51993 9.32816 9.3818 9.14697 9.25022L9.14671 9.25003C3.3936 5.07502 2.56923 4.42983 1.35057 3.47604C1.25408 3.40052 1.15512 3.32307 1.05104 3.24178C1.01466 3.21221 1 3.17559 1 3.14062V2.25C1 1.5601 1.5601 1 2.25 1H21.75C22.4399 1 23 1.5601 23 2.25V3.14062C23 3.1825 22.9803 3.21741 22.9557 3.23647L22.9516 3.23971C22.8699 3.3038 22.7914 3.36547 22.7147 3.42566C21.4592 4.41162 20.7117 4.99861 14.8533 9.25003L14.853 9.25022C14.6718 9.3818 14.4937 9.51993 14.3095 9.66273C13.9978 9.90434 13.669 10.1593 13.2792 10.4184C12.9918 10.6094 12.7234 10.7647 12.4851 10.8688C12.2373 10.9771 12.0866 11.0013 12.0172 11.0001Z" fill="white" stroke="black" stroke-width="2"/>
</svg>
