<svg width="24" height="24" viewBox="0 0 24 24" fill="none" xmlns="http://www.w3.org/2000/svg">
<path d="M6 9V8C6 4.68629 8.68629 2 12 2C15.3137 2 18.0249 3.46363 18.0249 6.77734L18 9H20C20.5523 9 21 9.44772 21 10V22C21 22.5523 20.5523 23 20 23H4C3.44772 23 3 22.5523 3 22V10C3 9.44772 3.44772 9 4 9H6ZM19 11H5V21H19V11ZM11 16.7324C10.4022 16.3866 10 15.7403 10 15C10 13.8954 10.8954 13 12 13C13.1046 13 14 13.8954 14 15C14 15.7403 13.5978 16.3866 13 16.7324V19H11V16.7324ZM8 9H18L18.0249 6.77734H16.0249C16.0249 4.5682 14.2091 4 12 4C9.79086 4 8 5.79086 8 8V9Z" fill="#1C1C1C"/>
</svg>
